<?xml version="1.0" encoding="UTF-8" standalone="no"?> <svg width="101" height="101" viewBox="0 0 101 101" fill="none" xmlns="http://www.w3.org/2000/svg">
<path d="M11.428 85.8779C11.43 85.8899 11.435 85.9009 11.438 85.9129C11.458 86.0089 11.488 86.1019 11.527 86.1919C11.54 86.2219 11.555 86.2499 11.57 86.2789C11.607 86.3509 11.649 86.4179 11.698 86.4839C11.718 86.5109 11.737 86.5379 11.759 86.5639C11.817 86.6319 11.883 86.6939 11.956 86.7509C11.971 86.7629 11.982 86.7789 11.997 86.7899C12 86.7919 12.004 86.7929 12.007 86.7949C12.012 86.7989 12.016 86.8039 12.021 86.8069C12.1 86.8619 12.186 86.8919 12.271 86.9299C12.32 86.9519 12.365 86.9849 12.416 87.0009C12.56 87.0469 12.708 87.0709 12.856 87.0709H12.857C12.857 87.0709 12.857 87.0709 12.858 87.0709C12.859 87.0709 12.86 87.0709 12.86 87.0709C13.02 87.0709 13.176 87.0349 13.327 86.9829C13.346 86.9759 13.367 86.9789 13.387 86.9719L34.934 78.5429C35.455 78.3389 35.812 77.8549 35.854 77.2959L36.606 67.1019C36.611 67.0949 36.619 67.0919 36.624 67.0849L72.564 15.4269C72.785 15.1109 72.87 14.7189 72.801 14.3399C72.734 13.9609 72.517 13.6239 72.2 13.4029L60.793 5.47591C60.135 5.01991 59.231 5.18091 58.771 5.83991L22.844 57.4959C22.835 57.5099 22.829 57.5249 22.821 57.5379L13.823 61.8259C13.35 62.0509 13.035 62.5129 12.999 63.0349L11.408 85.5159C11.407 85.5259 11.41 85.5349 11.41 85.5449C11.404 85.6569 11.408 85.7679 11.428 85.8779ZM60.327 8.69091L69.348 14.9609L35.068 64.2329L26.06 57.9619L60.327 8.69091ZM24.106 60.1439L33.711 66.8289L33.022 76.1699L16.824 82.5059L22.419 74.5569C22.88 73.9009 22.723 72.9949 22.067 72.5329C21.41 72.0709 20.504 72.2279 20.042 72.8859L14.676 80.5099L15.839 64.0839L24.106 60.1439Z" fill="black" stroke="black" stroke-width="2.2"/>
<path d="M94.254 91.7383H5.078C4.275 91.7383 3.625 92.3883 3.625 93.1913C3.625 93.9943 4.275 94.6443 5.078 94.6443H94.254C95.057 94.6443 95.707 93.9943 95.707 93.1913C95.707 92.3883 95.057 91.7383 94.254 91.7383Z" fill="black" stroke="black" stroke-width="2.2"/>
<path d="M73.397 74.2384C74.125 77.8284 73.128 80.0504 72.565 80.1664C72.351 80.2054 71.831 79.9744 71.207 79.1554C70.445 78.1574 69.821 76.6544 69.494 75.0324C69.489 75.0094 69.483 74.9854 69.477 74.9634C68.489 70.2514 65.702 67.1224 63.003 67.6714C60.554 68.1684 59.234 71.4564 59.68 75.5734C59.667 75.7124 59.667 75.8544 59.696 75.9984C60.575 80.3494 59.485 83.5764 58.38 83.8024C57.86 83.9094 57.064 83.3614 56.339 82.4104C55.376 81.1484 54.583 79.2684 54.156 77.2394C54.153 77.2204 54.149 77.2024 54.145 77.1824C52.985 71.4324 49.689 67.5834 46.47 68.2344C43.27 68.8854 41.729 73.7124 42.885 79.4594C43.043 80.2464 43.808 80.7564 44.596 80.5984C45.383 80.4404 45.892 79.6734 45.734 78.8874C44.859 74.5344 45.947 71.3074 47.047 71.0834C48.146 70.8464 50.379 73.3634 51.274 77.6454C51.277 77.6664 51.281 77.6854 51.285 77.7064C51.798 80.2304 52.772 82.5274 54.028 84.1744C55.299 85.8404 56.768 86.7244 58.232 86.7244C58.474 86.7244 58.717 86.7004 58.959 86.6514C61.899 86.0534 63.433 81.9384 62.771 76.8244C62.778 76.7014 62.776 76.5774 62.75 76.4514C62.025 72.8564 63.017 70.6364 63.58 70.5214C64.152 70.3904 65.926 72.0654 66.653 75.6554C66.657 75.6774 66.663 75.6994 66.668 75.7214C67.092 77.7454 67.881 79.5884 68.897 80.9194C69.973 82.3304 71.232 83.0794 72.501 83.0794C72.716 83.0794 72.931 83.0584 73.146 83.0154C75.869 82.4574 77.2 78.4704 76.258 73.7264C76.256 73.7184 76.257 73.7104 76.256 73.7024C75.876 71.8414 76.23 70.5514 76.489 70.1874C76.872 70.4164 77.684 71.4444 78.069 73.3374C78.078 73.3824 78.09 73.4264 78.102 73.4694C78.412 74.8984 78.976 76.2004 79.7 77.1524C80.523 78.2354 81.54 78.8234 82.556 78.8234C82.73 78.8234 82.904 78.8064 83.077 78.7714C85.256 78.3284 86.306 75.3884 85.572 71.7824C85.413 70.9944 84.637 70.4904 83.859 70.6474C83.072 70.8074 82.564 71.5744 82.724 72.3604C83.103 74.2264 82.748 75.5164 82.49 75.8774C82.107 75.6464 81.297 74.6154 80.916 72.7264C80.906 72.6804 80.895 72.6354 80.882 72.5914C80.117 69.0794 78.041 66.8504 75.895 67.2944C73.733 67.7394 72.688 70.6484 73.398 74.2214C73.397 74.2264 73.396 74.2324 73.397 74.2384Z" fill="black" stroke="black" stroke-width="2.2"/>
</svg>
